# xmcd
#
# Track frame offsets: 
#        150
#        14816
#        27155
#
# Disc length: 543 seconds
#
# Revision: 1
# Processed by: cddbd v1.5.2PL0 Copyright (c) Steve Scherf et al.
# Submitted via: ExactAudioCopy v1.0b3
#
DISCID=1e021d03
DTITLE=Calexico - Quattro (World Drifts In)
DYEAR=2003
DGENRE=Rock
TTITLE0=Quattro (Radio Edit)
TTITLE1=Praskovia
TTITLE2=Pampa
EXTD=
EXTT0=
EXTT1=
EXTT2=
PLAYORDER=
